<?xml version="1.0" encoding="UTF-8" standalone="no"?><!DOCTYPE svg PUBLIC "-//W3C//DTD SVG 1.1//EN" "http://www.w3.org/Graphics/SVG/1.1/DTD/svg11.dtd"><svg width="100%" height="100%" viewBox="0 0 2481 3508" version="1.1" xmlns="http://www.w3.org/2000/svg" xmlns:xlink="http://www.w3.org/1999/xlink" xml:space="preserve" xmlns:serif="http://www.serif.com/" style="fill-rule:evenodd;clip-rule:evenodd;stroke-linecap:round;stroke-linejoin:round;stroke-miterlimit:1.5;"><g><ellipse cx="1496.04" cy="2082.03" rx="123.788" ry="103.313" style="fill:#1ddf19;"/><ellipse cx="851.932" cy="2077.88" rx="123.788" ry="103.313" style="fill:#1ddf19;"/><path d="M730.399,2063.75c6.53,51.907 59.194,92.419 123.107,92.419c63.232,0 115.454,-39.654 122.883,-90.766c0.451,3.581 0.681,7.215 0.681,10.894c0,57.02 -55.467,103.313 -123.788,103.313c-68.321,0 -123.788,-46.293 -123.788,-103.313c0,-4.247 0.307,-8.434 0.905,-12.547Z" style="fill:#1ebc1b;"/><path d="M1372.46,2070.96c6.529,51.907 59.194,92.419 123.106,92.419c63.232,0 115.455,-39.654 122.883,-90.766c0.451,3.581 0.682,7.215 0.682,10.894c0,57.02 -55.468,103.313 -123.788,103.313c-68.321,0 -123.789,-46.293 -123.789,-103.313c0,-4.247 0.308,-8.434 0.906,-12.547Z" style="fill:#1ebc1b;"/></g><path d="M1489.51,2024.09l0.532,0.072l0.524,0.116l0.514,0.159l0.498,0.201l0.48,0.241l0.459,0.28l0.433,0.317l0.407,0.352l0.375,0.384l0.343,0.413l0.307,0.441l0.27,0.464l0.231,0.485l0.19,0.503l0.148,0.516l0.104,0.527l0.061,0.534l0.016,0.537l-0.028,0.537l-0.072,0.532l-0.116,0.525l-0.159,0.513l-0.2,0.498l-0.241,0.48l-0.28,0.459l-0.317,0.433l-0.352,0.407l-0.384,0.375l-0.354,0.294l-0.002,0.002l-0.012,0.014l-0.018,0.021l-0.019,0.024l-0.022,0.029l-0.028,0.038l-0.029,0.041l-0.032,0.046l-0.036,0.052l-0.036,0.055l-0.038,0.059l-0.042,0.066l-0.042,0.07l-0.046,0.077l-0.047,0.081l-0.047,0.081l-0.049,0.087l-0.052,0.096l-0.053,0.097l-0.052,0.098l-0.055,0.104l-0.054,0.104l-0.119,0.235l-0.12,0.239l-0.124,0.251l-0.267,0.549l-0.139,0.285l-0.146,0.299l-0.153,0.308l-0.157,0.312l-0.086,0.169l-0.085,0.163l-0.087,0.166l-0.09,0.17l-0.093,0.171l-0.095,0.173l-0.099,0.176l-0.102,0.178l-0.107,0.182l-0.108,0.18l-0.112,0.183l-0.119,0.188l-0.121,0.187l-0.126,0.189l-0.131,0.19l-0.128,0.18l-0.222,0.306l-0.211,0.288l-0.213,0.288l-0.216,0.287l-0.215,0.285l-0.217,0.283l-0.217,0.282l-0.219,0.281l-0.219,0.279l-0.22,0.277l-0.221,0.277l-0.223,0.276l-0.223,0.274l-0.222,0.271l-0.224,0.272l-0.225,0.27l-0.226,0.269l-0.226,0.268l-0.226,0.267l-0.227,0.265l-0.228,0.264l-0.227,0.263l-0.228,0.262l-0.23,0.262l-0.228,0.259l-0.229,0.258l-0.231,0.259l-0.23,0.257l-0.23,0.256l-0.232,0.257l-0.459,0.505l-0.461,0.503l-0.462,0.499l-0.461,0.497l-0.461,0.494l-0.461,0.49l-0.459,0.488l-0.459,0.484l-0.458,0.483l-0.907,0.954l-0.901,0.948l-0.446,0.47l-0.444,0.468l-0.44,0.466l-0.445,0.473l-0.15,0.159l-0.157,0.165l-0.158,0.166l-0.159,0.164l-0.158,0.163l-0.164,0.167l-0.314,0.317l-0.32,0.317l-0.32,0.315l-0.322,0.311l-0.322,0.308l-0.323,0.306l-0.324,0.302l-0.324,0.299l-0.323,0.295l-0.325,0.293l-0.324,0.291l-0.325,0.288l-0.325,0.285l-0.324,0.283l-0.325,0.281l-0.325,0.279l-0.323,0.276l-0.324,0.274l-0.324,0.273l-0.322,0.27l-0.322,0.269l-0.321,0.267l-0.323,0.266l-0.635,0.524l-0.635,0.521l-0.629,0.515l-0.625,0.512l-0.62,0.507l-0.612,0.504l-0.609,0.504l-0.299,0.249l-0.298,0.249l-0.296,0.249l-0.294,0.249l-0.293,0.249l-0.291,0.249l-0.287,0.247l-0.287,0.25l-0.284,0.248l-0.28,0.248l-0.279,0.248l-0.278,0.25l-0.274,0.249l-0.27,0.248l-0.269,0.25l-0.267,0.251l-0.263,0.25l-0.26,0.251l-0.258,0.251l-0.255,0.253l-0.257,0.258l-0.121,0.122l-0.125,0.127l-0.124,0.128l-0.122,0.126l-0.121,0.127l-0.121,0.128l-0.151,0.161l-0.151,0.161l-0.148,0.16l-0.149,0.161l-0.148,0.163l-0.148,0.163l-0.148,0.164l-0.149,0.166l-0.146,0.166l-0.145,0.164l-0.146,0.167l-0.147,0.168l-0.145,0.169l-0.145,0.168l-0.144,0.169l-0.144,0.17l-0.145,0.173l-0.14,0.167l-0.289,0.349l-0.285,0.348l-0.283,0.35l-0.283,0.353l-0.281,0.355l-0.281,0.358l-0.279,0.36l-0.28,0.363l-0.278,0.365l-0.277,0.367l-0.276,0.369l-0.276,0.371l-0.276,0.374l-0.275,0.376l-0.274,0.377l-0.275,0.38l-0.274,0.382l-0.273,0.382l-0.274,0.385l-0.273,0.387l-0.274,0.388l-0.273,0.39l-0.273,0.39l-0.55,0.79l-0.55,0.792l-1.107,1.601l-0.558,0.805l-0.562,0.81l-0.565,0.811l-0.287,0.41l-0.286,0.407l-0.288,0.408l-0.29,0.41l-0.291,0.408l-0.293,0.41l-0.295,0.41l-0.296,0.41l-0.299,0.41l-0.301,0.41l-0.303,0.411l-0.305,0.409l-0.307,0.409l-0.31,0.41l-0.313,0.41l-0.315,0.409l-0.318,0.408l-0.322,0.41l-0.207,0.26l-0.21,0.261l-0.21,0.258l-0.212,0.257l-0.212,0.253l-0.213,0.253l-0.214,0.251l-0.214,0.247l-0.214,0.246l-0.216,0.246l-0.217,0.244l-0.216,0.241l-0.215,0.239l-0.217,0.238l-0.217,0.237l-0.218,0.235l-0.217,0.233l-0.216,0.231l-0.218,0.232l-0.218,0.229l-0.217,0.227l-0.219,0.229l-0.432,0.448l-0.432,0.444l-0.43,0.44l-0.43,0.437l-0.427,0.432l-0.844,0.852l-0.834,0.843l-0.409,0.415l-0.406,0.414l-0.401,0.412l-0.396,0.409l-0.394,0.411l-0.19,0.2l-0.192,0.204l-0.19,0.201l-0.189,0.202l-0.187,0.203l-0.184,0.2l-0.184,0.201l-0.183,0.201l-0.18,0.201l-0.179,0.2l-0.176,0.2l-0.175,0.199l-0.173,0.2l-0.184,0.214l-0.226,0.263l-0.241,0.276l-0.241,0.273l-0.241,0.271l-0.243,0.268l-0.242,0.265l-0.244,0.265l-0.243,0.26l-0.244,0.259l-0.244,0.258l-0.244,0.255l-0.244,0.252l-0.244,0.251l-0.243,0.249l-0.243,0.247l-0.244,0.246l-0.242,0.244l-0.245,0.244l-0.481,0.478l-0.48,0.474l-0.477,0.469l-0.941,0.924l-0.464,0.455l-0.458,0.452l-0.451,0.447l-0.449,0.448l-0.218,0.22l-0.216,0.219l-0.217,0.22l-0.214,0.219l-0.211,0.218l-0.211,0.22l-0.207,0.216l-0.206,0.217l-0.203,0.217l-0.201,0.216l-0.198,0.216l-0.196,0.214l-0.193,0.215l-0.19,0.214l-0.189,0.214l-0.185,0.213l-0.183,0.214l-0.18,0.213l-0.176,0.213l-0.175,0.213l-0.171,0.212l-0.168,0.211l-0.165,0.212l-0.163,0.212l-0.16,0.212l-0.16,0.216l-0.072,0.1l-0.078,0.107l-0.075,0.105l-0.089,0.127l-0.166,0.233l-0.183,0.25l-0.182,0.244l-0.181,0.237l-0.18,0.232l-0.18,0.227l-0.179,0.222l-0.176,0.215l-0.176,0.211l-0.175,0.209l-0.171,0.202l-0.169,0.196l-0.167,0.194l-0.166,0.191l-0.317,0.363l-0.309,0.35l-0.294,0.337l-0.286,0.329l-0.133,0.154l-0.131,0.153l-0.127,0.15l-0.124,0.149l-0.121,0.145l-0.115,0.143l-0.112,0.139l-0.107,0.137l-0.104,0.134l-0.03,0.039l-0.015,0.023l-0.111,0.169l-0.149,0.225l-0.369,0.567l-0.415,0.637l-0.767,1.182l-0.259,0.397l-0.117,0.179l-0.068,0.098l-0.319,0.424l-0.352,0.397l-0.384,0.367l-0.412,0.334l-0.438,0.299l-0.461,0.263l-0.482,0.224l-0.497,0.184l-0.511,0.143l-0.521,0.101l-0.528,0.058l-0.531,0.014l-0.529,-0.028l-0.526,-0.072l-0.519,-0.115l-0.507,-0.156l-0.492,-0.197l-0.475,-0.237l-0.225,-0.123l-0.391,-0.254l-0.335,-0.249l-0.278,-0.232l-0.238,-0.219l-0.23,-0.231l-0.192,-0.213l-0.155,-0.183l-0.154,-0.194l-0.133,-0.179l-0.105,-0.151l-0.122,-0.182l-0.157,-0.254l-0.145,-0.254l-0.119,-0.227l-0.103,-0.207l-0.09,-0.192l-0.075,-0.166l-0.068,-0.159l-0.065,-0.155l-0.094,-0.235l-0.058,-0.148l-0.151,-0.202l-0.566,-0.756l-0.567,-0.76l-0.566,-0.763l-0.566,-0.765l-0.565,-0.768l-0.563,-0.77l-0.567,-0.777l-0.11,-0.153l-0.111,-0.155l-0.112,-0.158l-0.111,-0.159l-0.109,-0.158l-0.109,-0.159l-0.11,-0.163l-0.107,-0.16l-0.105,-0.158l-0.106,-0.162l-0.107,-0.164l-0.108,-0.168l-0.202,-0.32l-0.204,-0.329l-0.201,-0.329l-0.198,-0.332l-0.196,-0.333l-0.192,-0.334l-0.191,-0.336l-0.188,-0.338l-0.185,-0.338l-0.183,-0.34l-0.181,-0.342l-0.178,-0.341l-0.175,-0.343l-0.174,-0.344l-0.172,-0.345l-0.17,-0.347l-0.167,-0.346l-0.165,-0.346l-0.163,-0.349l-0.162,-0.348l-0.159,-0.348l-0.157,-0.348l-0.155,-0.35l-0.154,-0.35l-0.152,-0.35l-0.149,-0.348l-0.148,-0.35l-0.147,-0.35l-0.144,-0.348l-0.143,-0.35l-0.141,-0.348l-0.14,-0.348l-0.137,-0.348l-0.136,-0.347l-0.135,-0.346l-0.133,-0.345l-0.131,-0.345l-0.129,-0.343l-0.128,-0.343l-0.127,-0.342l-0.125,-0.34l-0.124,-0.338l-0.122,-0.338l-0.12,-0.337l-0.119,-0.334l-0.119,-0.336l-0.23,-0.658l-0.225,-0.652l-0.219,-0.644l-0.215,-0.636l-0.208,-0.625l-0.196,-0.593l-0.032,-0.094l-0.025,-0.071l-0.028,-0.075l-0.03,-0.081l-0.031,-0.08l-0.034,-0.084l-0.036,-0.088l-0.038,-0.088l-0.041,-0.094l-0.042,-0.094l-0.045,-0.098l-0.047,-0.099l-0.048,-0.103l-0.052,-0.107l-0.052,-0.104l-0.055,-0.11l-0.059,-0.116l-0.055,-0.108l-0.128,-0.243l-0.131,-0.247l-0.139,-0.255l-0.145,-0.266l-0.152,-0.274l-0.318,-0.575l-0.166,-0.302l-0.17,-0.312l-0.174,-0.323l-0.173,-0.324l-0.091,-0.175l-0.09,-0.174l-0.089,-0.176l-0.09,-0.179l-0.089,-0.179l-0.09,-0.184l-0.091,-0.189l-0.088,-0.189l-0.089,-0.191l-0.088,-0.197l-0.089,-0.201l-0.087,-0.204l-0.086,-0.205l-0.085,-0.209l-0.085,-0.214l-0.082,-0.215l-0.081,-0.221l-0.08,-0.223l-0.077,-0.226l-0.076,-0.232l-0.073,-0.235l-0.071,-0.239l-0.069,-0.242l-0.054,-0.202l-0.029,-0.111l-0.02,-0.073l-0.022,-0.075l-0.023,-0.075l-0.024,-0.077l-0.026,-0.078l-0.027,-0.082l-0.03,-0.084l-0.031,-0.086l-0.032,-0.088l-0.033,-0.088l-0.037,-0.095l-0.037,-0.094l-0.038,-0.094l-0.042,-0.102l-0.043,-0.102l-0.045,-0.105l-0.043,-0.1l-0.1,-0.228l-0.104,-0.231l-0.11,-0.241l-0.117,-0.253l-0.122,-0.265l-0.256,-0.554l-0.137,-0.298l-0.139,-0.309l-0.139,-0.315l-0.075,-0.172l-0.071,-0.167l-0.072,-0.171l-0.073,-0.175l-0.072,-0.178l-0.073,-0.182l-0.072,-0.185l-0.072,-0.188l-0.072,-0.192l-0.07,-0.194l-0.07,-0.198l-0.069,-0.202l-0.068,-0.205l-0.068,-0.211l-0.065,-0.211l-0.064,-0.216l-0.062,-0.22l-0.061,-0.223l-0.058,-0.226l-0.056,-0.228l-0.055,-0.237l-0.051,-0.236l-0.049,-0.238l-0.027,-0.145l-0.055,-0.123l-0.06,-0.136l-0.068,-0.158l-0.076,-0.181l-0.083,-0.206l-0.088,-0.233l-0.084,-0.241l-0.056,-0.171l-0.047,-0.156l-0.05,-0.173l-0.048,-0.186l-0.048,-0.2l-0.046,-0.22l-0.042,-0.234l-0.038,-0.256l-0.032,-0.283l-0.022,-0.303l-0.01,-0.335l0.007,-0.357l0.027,-0.39l0.054,-0.423l0.086,-0.448l0.124,-0.472l0.168,-0.493l0.219,-0.506l0.138,-0.26l0.14,-0.251l0.152,-0.245l0.169,-0.26l0.362,-0.464l0.212,-0.229l0.202,-0.209l0.212,-0.2l0.227,-0.204l0.454,-0.345l0.458,-0.293l0.461,-0.249l0.447,-0.199l0.376,-0.14l0.266,-0.085l0.189,-0.056l0.188,-0.052l0.178,-0.045l0.187,-0.044l0.178,-0.038l0.16,-0.032l0.176,-0.032l0.168,-0.027l0.149,-0.023l0.158,-0.021l0.157,-0.019l0.148,-0.016l0.157,-0.015l0.259,-0.021l0.26,-0.015l0.246,-0.011l0.233,-0.006l0.217,-0.003l0.208,-0.001l0.197,0.001l0.333,0.004l0.299,0.005l0.255,0.004l0.092,0.001l0.09,-0.001l0.076,0l0.058,-0.002l0.003,0l0.022,-0.005l0.092,-0.024l0.1,-0.027l0.098,-0.028l0.1,-0.029l0.107,-0.033l0.108,-0.034l0.109,-0.035l0.114,-0.038l0.113,-0.039l0.115,-0.041l0.118,-0.043l0.125,-0.046l0.122,-0.046l0.123,-0.048l0.126,-0.05l0.125,-0.051l0.132,-0.054l0.132,-0.056l0.128,-0.055l0.134,-0.059l0.134,-0.06l0.134,-0.06l0.136,-0.062l0.136,-0.063l0.141,-0.067l0.137,-0.066l0.136,-0.066l0.142,-0.07l0.141,-0.07l0.139,-0.071l0.141,-0.072l0.142,-0.072l0.142,-0.075l0.144,-0.076l0.14,-0.074l0.139,-0.076l0.144,-0.078l0.138,-0.076l0.289,-0.161l0.285,-0.161l0.281,-0.162l0.281,-0.165l0.279,-0.166l0.275,-0.166l0.275,-0.168l0.27,-0.168l0.267,-0.167l0.262,-0.167l0.259,-0.167l0.245,-0.159l0.026,-0.017l0.012,-0.008l0.016,-0.011l0.018,-0.013l0.019,-0.015l0.014,-0.01l0.012,-0.01l0.02,-0.016l0.022,-0.017l0.014,-0.012l0.015,-0.013l0.022,-0.02l0.022,-0.019l0.018,-0.017l0.019,-0.018l0.022,-0.022l0.02,-0.019l0.025,-0.026l0.022,-0.023l0.019,-0.02l0.027,-0.029l0.028,-0.03l0.021,-0.024l0.026,-0.03l0.03,-0.034l0.023,-0.027l0.029,-0.036l0.028,-0.035l0.028,-0.034l0.03,-0.038l0.03,-0.039l0.03,-0.04l0.032,-0.042l0.025,-0.034l0.071,-0.099l0.068,-0.097l0.069,-0.101l0.071,-0.107l0.073,-0.113l0.075,-0.117l0.076,-0.124l0.08,-0.131l0.081,-0.135l0.083,-0.14l0.085,-0.146l0.086,-0.151l0.087,-0.152l0.188,-0.333l0.397,-0.713l0.211,-0.376l0.114,-0.2l0.115,-0.201l0.119,-0.206l0.123,-0.21l0.125,-0.212l0.132,-0.218l0.135,-0.219l0.138,-0.221l0.145,-0.227l0.15,-0.23l0.155,-0.231l0.161,-0.233l0.168,-0.237l0.169,-0.231l0.095,-0.127l0.089,-0.118l0.092,-0.12l0.097,-0.124l0.097,-0.121l0.097,-0.12l0.101,-0.122l0.104,-0.124l0.106,-0.123l0.102,-0.117l0.107,-0.121l0.115,-0.126l0.114,-0.122l0.112,-0.119l0.118,-0.123l0.119,-0.12l0.122,-0.121l0.126,-0.123l0.125,-0.118l0.127,-0.118l0.131,-0.119l0.133,-0.118l0.135,-0.116l0.136,-0.115l0.12,-0.099l0.113,-0.091l0.109,-0.087l0.119,-0.093l0.115,-0.087l0.122,-0.092l0.218,-0.158l0.228,-0.162l0.229,-0.157l0.227,-0.15l0.229,-0.148l0.229,-0.143l0.227,-0.139l0.226,-0.135l0.228,-0.132l0.228,-0.129l0.228,-0.127l0.227,-0.124l0.229,-0.121l0.226,-0.118l0.228,-0.117l0.228,-0.115l0.224,-0.112l0.226,-0.11l0.228,-0.11l0.226,-0.107l0.226,-0.106l0.226,-0.104l0.224,-0.102l0.225,-0.102l0.222,-0.099l0.222,-0.098l0.226,-0.099l0.434,-0.188l0.435,-0.186l0.431,-0.182l0.422,-0.177l0.417,-0.173l0.804,-0.334l0.386,-0.16l0.374,-0.157l0.361,-0.152l0.345,-0.148l0.336,-0.146l0.153,-0.068l0.151,-0.067l0.149,-0.067l0.141,-0.065l0.139,-0.064l0.133,-0.062l0.124,-0.06l0.117,-0.057l0.112,-0.055l0.134,-0.068l0.199,-0.101l0.229,-0.111l0.227,-0.109l0.228,-0.105l0.226,-0.102l0.228,-0.1l0.224,-0.096l0.226,-0.093l0.228,-0.092l0.222,-0.087l0.222,-0.084l0.223,-0.083l0.22,-0.079l0.222,-0.078l0.222,-0.075l0.216,-0.072l0.217,-0.07l0.217,-0.069l0.215,-0.065l0.215,-0.065l0.212,-0.061l0.21,-0.06l0.212,-0.059l0.21,-0.056l0.208,-0.055l0.208,-0.054l0.201,-0.05l0.205,-0.051l0.205,-0.049l0.206,-0.049l0.39,-0.09l0.393,-0.087l0.387,-0.083l0.38,-0.079l0.374,-0.076l0.369,-0.074l0.363,-0.071l0.702,-0.138l0.685,-0.134l0.329,-0.066l0.326,-0.067l0.316,-0.066l0.311,-0.067l0.305,-0.067l0.316,-0.073l0.374,-0.087l0.392,-0.091l0.776,-0.177l0.779,-0.174l0.778,-0.172l0.777,-0.169l0.776,-0.167l0.775,-0.165l0.774,-0.163l0.773,-0.161l0.773,-0.16l1.536,-0.316l1.532,-0.314l1.525,-0.313l0.758,-0.156l0.757,-0.157l0.754,-0.157l0.752,-0.158l0.749,-0.159l0.746,-0.16l0.743,-0.162l0.741,-0.163l0.737,-0.165l0.737,-0.168l0.363,-0.084l0.365,-0.085l0.365,-0.086l0.362,-0.086l0.363,-0.086l0.362,-0.088l0.36,-0.088l0.358,-0.088l0.359,-0.09l0.359,-0.091l0.356,-0.091l0.339,-0.087l0.108,-0.03l0.09,-0.025l0.09,-0.026l0.093,-0.03l0.096,-0.031l0.096,-0.032l0.008,-0.003l0.02,-0.018l0.141,-0.128l0.145,-0.126l0.144,-0.122l0.151,-0.125l0.153,-0.122l0.151,-0.118l0.157,-0.12l0.159,-0.117l0.157,-0.113l0.165,-0.115l0.164,-0.111l0.166,-0.109l0.171,-0.109l0.17,-0.104l0.175,-0.105l0.171,-0.1l0.177,-0.1l0.178,-0.097l0.181,-0.096l0.185,-0.095l0.178,-0.089l0.185,-0.089l0.189,-0.088l0.189,-0.085l0.185,-0.08l0.187,-0.079l0.192,-0.08l0.201,-0.08l0.212,-0.082l0.223,-0.084l0.231,-0.083l0.244,-0.084l0.254,-0.083l0.255,-0.08l0.152,-0.044l0.134,-0.039l0.019,-0.005l0.117,-0.062l0.195,-0.102l0.196,-0.101l0.201,-0.102l0.205,-0.102l0.208,-0.101l0.207,-0.099l0.213,-0.1l0.218,-0.1l0.22,-0.098l0.225,-0.097l0.17,-0.072l0.174,-0.071l0.174,-0.069l0.171,-0.066l0.171,-0.064l0.168,-0.06l0.172,-0.06l0.173,-0.059l0.17,-0.055l0.17,-0.053l0.165,-0.051l0.166,-0.049l0.168,-0.047l0.166,-0.046l0.162,-0.043l0.163,-0.042l0.169,-0.041l0.158,-0.037l0.159,-0.037l0.164,-0.036l0.155,-0.032l0.159,-0.033l0.16,-0.031l0.15,-0.028l0.155,-0.028l0.166,-0.029l0.29,-0.047l0.296,-0.045l0.292,-0.04l0.286,-0.036l0.282,-0.033l0.279,-0.03l0.269,-0.027l0.264,-0.024l0.261,-0.022l0.256,-0.02l0.249,-0.018l0.243,-0.017l0.241,-0.016l0.452,-0.028l0.436,-0.027l0.42,-0.027l0.196,-0.013l0.192,-0.014l0.187,-0.014l0.181,-0.015l0.174,-0.015l0.167,-0.016l0.165,-0.017l0.16,-0.017l0.148,-0.019l0.146,-0.019l0.143,-0.021l0.146,-0.022l0.05,-0.009l0.067,-0.011l0.066,-0.012l0.056,-0.011l0.061,-0.012l0.061,-0.012l0.056,-0.012l0.057,-0.012l0.05,-0.012l0.057,-0.014l0.051,-0.012l0.047,-0.012l0.057,-0.015l0.046,-0.013l0.048,-0.014l0.047,-0.014l0.043,-0.013l0.048,-0.015l0.044,-0.015l0.039,-0.013l0.043,-0.015l0.04,-0.015l0.042,-0.015l0.041,-0.016l0.037,-0.015l0.042,-0.018l0.034,-0.014l0.035,-0.016l0.043,-0.019l0.036,-0.017l0.033,-0.016l0.038,-0.019l0.034,-0.017l0.035,-0.019l0.038,-0.02l0.033,-0.019l0.038,-0.021l0.036,-0.022l0.033,-0.02l0.065,-0.04l0.14,-0.088l0.165,-0.102l0.172,-0.104l0.18,-0.105l0.178,-0.102l0.185,-0.103l0.198,-0.107l0.195,-0.102l0.197,-0.099l0.21,-0.102l0.215,-0.099l0.221,-0.098l0.222,-0.093l0.227,-0.09l0.24,-0.091l0.241,-0.084l0.239,-0.079l0.25,-0.077l0.251,-0.071l0.255,-0.066l0.261,-0.061l0.128,-0.027l0.113,-0.051l0.221,-0.093l0.228,-0.091l0.237,-0.087l0.249,-0.085l0.259,-0.081l0.268,-0.076l0.284,-0.071l0.263,-0.058l0.17,-0.033l0.153,-0.028l0.165,-0.026l0.154,-0.022l0.157,-0.019l0.169,-0.018l0.17,-0.015l0.172,-0.012l0.172,-0.008l0.173,-0.004l0.187,-0.002l0.174,0.003l0.116,0.004l0,-0.001l0.203,-0.233l0.203,-0.234l0.201,-0.233l0.2,-0.234l0.199,-0.234l0.197,-0.234l0.195,-0.233l0.195,-0.234l0.193,-0.234l0.193,-0.236l0.19,-0.233l0.189,-0.234l0.187,-0.234l0.186,-0.236l0.185,-0.235l0.183,-0.235l0.182,-0.235l0.18,-0.236l0.178,-0.235l0.176,-0.235l0.175,-0.236l0.174,-0.238l0.162,-0.221l0.03,-0.043l0.025,-0.036l0.028,-0.042l0.031,-0.049l0.033,-0.051l0.036,-0.06l0.04,-0.066l0.039,-0.067l0.043,-0.075l0.045,-0.08l0.048,-0.086l0.048,-0.09l0.051,-0.095l0.052,-0.1l0.055,-0.105l0.052,-0.102l0.118,-0.234l0.121,-0.244l0.126,-0.259l0.134,-0.275l0.281,-0.576l0.153,-0.311l0.16,-0.32l0.164,-0.321l0.089,-0.173l0.09,-0.17l0.093,-0.176l0.095,-0.174l0.096,-0.174l0.101,-0.181l0.105,-0.184l0.106,-0.181l0.11,-0.184l0.115,-0.188l0.118,-0.188l0.123,-0.193l0.128,-0.193l0.13,-0.192l0.136,-0.195l0.141,-0.196l0.146,-0.196l0.154,-0.2l0.159,-0.201l0.164,-0.199l0.173,-0.202l0.18,-0.203l0.172,-0.185l0.108,-0.113l0.099,-0.102l0.103,-0.103l0.101,-0.098l0.097,-0.093l0.111,-0.105l0.111,-0.101l0.105,-0.093l0.114,-0.1l0.117,-0.099l0.118,-0.097l0.115,-0.093l0.122,-0.095l0.093,-0.071l0.441,-0.308l0.464,-0.27l0.485,-0.231l0.503,-0.189l0.516,-0.148l0.527,-0.105l0.534,-0.06l0.537,-0.017l0.537,0.028Zm-80.623,48.187l-0.406,0.169l-0.804,0.334l-0.397,0.165l-0.393,0.165l-0.386,0.163l-0.381,0.162l-0.379,0.165l-0.178,0.078l-0.182,0.08l-0.179,0.08l-0.175,0.079l-0.172,0.079l-0.17,0.078l-0.166,0.078l-0.163,0.077l-0.158,0.076l-0.156,0.076l-0.154,0.077l-0.147,0.073l-0.142,0.074l-0.14,0.073l-0.133,0.07l-0.128,0.07l-0.124,0.069l-0.117,0.066l-0.112,0.066l-0.107,0.063l-0.101,0.062l-0.092,0.057l-0.085,0.055l-0.081,0.054l-0.071,0.048l-0.064,0.046l-0.068,0.049l-0.016,0.013l-0.024,0.017l-0.015,0.013l-0.025,0.019l-0.018,0.015l-0.009,0.007l-0.019,0.016l-0.019,0.016l-0.018,0.017l-0.018,0.016l-0.021,0.019l-0.021,0.021l-0.018,0.017l-0.021,0.021l-0.022,0.022l-0.021,0.022l-0.026,0.027l-0.022,0.024l-0.021,0.023l-0.026,0.029l-0.029,0.034l-0.026,0.029l-0.025,0.03l-0.026,0.032l-0.03,0.037l-0.028,0.035l-0.027,0.034l-0.03,0.04l-0.032,0.042l-0.026,0.034l-0.068,0.094l-0.065,0.092l-0.069,0.099l-0.07,0.105l-0.071,0.109l-0.074,0.115l-0.077,0.124l-0.078,0.127l-0.079,0.131l-0.083,0.139l-0.083,0.143l-0.086,0.148l-0.088,0.154l-0.089,0.156l-0.19,0.339l-0.403,0.722l-0.215,0.382l-0.116,0.204l-0.117,0.204l-0.121,0.208l-0.126,0.213l-0.129,0.214l-0.132,0.217l-0.138,0.223l-0.143,0.226l-0.148,0.228l-0.153,0.231l-0.16,0.233l-0.164,0.235l-0.165,0.229l-0.095,0.128l-0.089,0.12l-0.092,0.12l-0.093,0.121l-0.095,0.121l-0.098,0.122l-0.098,0.121l-0.1,0.12l-0.106,0.127l-0.102,0.118l-0.107,0.122l-0.113,0.126l-0.108,0.119l-0.11,0.118l-0.119,0.127l-0.118,0.121l-0.117,0.118l-0.123,0.123l-0.124,0.119l-0.128,0.121l-0.13,0.121l-0.129,0.116l-0.13,0.115l-0.139,0.121l-0.142,0.119l-0.137,0.112l-0.139,0.112l-0.15,0.117l-0.15,0.114l-0.085,0.063l0.126,0.091l0.153,0.113l0.098,0.072l0.046,0.034l0.165,0.119l0.209,0.157l0.206,0.158l0.12,0.094l0.085,-0.137l0.011,-0.016l0.272,-0.384l0.298,-0.362l0.011,-0.013l0.378,-0.392l0.408,-0.358l0.012,-0.01l0.365,-0.273l0.383,-0.247l0.005,-0.004l0.349,-0.194l0.36,-0.172l0.006,-0.003l0.402,-0.161l0.412,-0.135l0.006,-0.001l0.353,-0.092l0.358,-0.072l0.007,-0.001l0.501,-0.066l0.057,-0.003l0.042,-0.06l0.14,-0.187l0.153,-0.192l0.156,-0.183l0.168,-0.185l0.18,-0.186l0.193,-0.186l0.202,-0.18l0.216,-0.181l0.239,-0.183l0.238,-0.168l0.257,-0.166l0.268,-0.158l0.262,-0.14l0.293,-0.141l0.294,-0.126l0.288,-0.109l0.316,-0.104l0.301,-0.084l0.303,-0.073l0.325,-0.062l0.322,-0.046l0.301,-0.03l0.294,-0.019l0.3,-0.006l0.304,0.005l0.28,0.016l0.283,0.026l0.253,0.034l0.079,0.012l0.02,-0.194l0.038,-0.353l0.007,-0.068l0.007,-0.084l0.01,-0.131l0.012,-0.17l0.031,-0.43l0.018,-0.252l0.02,-0.271l0.023,-0.29l0.026,-0.307l0.03,-0.321l0.034,-0.336l0.037,-0.338l0.022,-0.186l0.023,-0.182l0.024,-0.186l0.025,-0.186l0.027,-0.189l0.03,-0.192l0.031,-0.195l0.033,-0.197l0.035,-0.198l0.038,-0.205l0.04,-0.206l0.043,-0.205l0.046,-0.211l0.05,-0.214l0.053,-0.218l0.058,-0.223l0.062,-0.223l0.066,-0.227l0.073,-0.232l0.078,-0.239l0.086,-0.242l0.092,-0.245l0.049,-0.122l-0.253,0.105Z"/><path d="M878.4,2036l0.183,0.011l0.17,0.014l0.168,0.017l0.167,0.02l0.167,0.024l0.164,0.026l0.163,0.029l0.151,0.029l0.138,0.029l0.177,0.041l0.27,0.069l0.277,0.079l0.269,0.086l0.251,0.089l0.244,0.092l0.242,0.099l0.222,0.097l0.215,0.099l0.114,0.055l0.13,0.033l0.255,0.069l0.251,0.074l0.25,0.08l0.246,0.084l0.241,0.089l0.237,0.092l0.232,0.097l0.226,0.098l0.224,0.104l0.213,0.103l0.21,0.106l0.204,0.107l0.199,0.108l0.193,0.11l0.189,0.11l0.182,0.11l0.178,0.11l0.173,0.11l0.166,0.108l0.169,0.111l0.135,0.091l0.061,0.042l0.035,0.022l0.032,0.021l0.038,0.023l0.035,0.021l0.031,0.019l0.04,0.023l0.036,0.019l0.029,0.016l0.037,0.02l0.041,0.02l0.032,0.016l0.034,0.017l0.044,0.02l0.038,0.017l0.036,0.017l0.037,0.015l0.041,0.017l0.041,0.017l0.04,0.015l0.048,0.019l0.039,0.014l0.039,0.014l0.054,0.018l0.047,0.016l0.042,0.014l0.048,0.015l0.047,0.014l0.052,0.015l0.056,0.016l0.052,0.014l0.052,0.014l0.056,0.014l0.056,0.014l0.056,0.014l0.061,0.014l0.062,0.013l0.061,0.014l0.066,0.013l0.054,0.011l0.143,0.028l0.14,0.025l0.144,0.024l0.152,0.023l0.159,0.024l0.16,0.021l0.167,0.022l0.179,0.022l0.178,0.02l0.184,0.02l0.195,0.021l0.193,0.019l0.418,0.041l0.437,0.042l0.451,0.044l0.238,0.024l0.242,0.025l0.25,0.026l0.255,0.029l0.259,0.031l0.265,0.033l0.267,0.036l0.275,0.038l0.282,0.043l0.287,0.046l0.288,0.05l0.296,0.055l0.291,0.057l0.163,0.034l0.154,0.034l0.148,0.033l0.158,0.036l0.158,0.038l0.152,0.037l0.162,0.041l0.163,0.043l0.16,0.044l0.161,0.046l0.156,0.045l0.166,0.05l0.168,0.052l0.16,0.051l0.169,0.056l0.168,0.058l0.161,0.057l0.171,0.062l0.166,0.062l0.17,0.066l0.169,0.068l0.168,0.069l0.172,0.073l0.171,0.074l0.169,0.076l0.166,0.077l0.223,0.106l0.219,0.106l0.212,0.106l0.207,0.106l0.207,0.107l0.205,0.109l0.201,0.108l0.198,0.109l0.192,0.108l0.189,0.107l0.117,0.067l0.025,0.008l0.132,0.043l0.144,0.047l0.251,0.088l0.251,0.091l0.244,0.094l0.228,0.091l0.219,0.09l0.21,0.09l0.198,0.087l0.187,0.085l0.187,0.086l0.184,0.088l0.182,0.089l0.184,0.094l0.182,0.095l0.178,0.096l0.181,0.101l0.179,0.103l0.172,0.102l0.173,0.105l0.171,0.107l0.172,0.111l0.167,0.112l0.162,0.111l0.164,0.115l0.162,0.119l0.16,0.119l0.154,0.119l0.154,0.121l0.154,0.125l0.148,0.125l0.147,0.126l0.144,0.128l0.143,0.129l0.14,0.131l0.136,0.13l0.02,0.02l0.009,0.004l0.097,0.036l0.091,0.033l0.09,0.032l0.091,0.03l0.089,0.029l0.107,0.032l0.337,0.1l0.352,0.102l0.355,0.103l0.356,0.102l0.355,0.1l0.358,0.101l0.358,0.099l0.359,0.099l0.361,0.099l0.36,0.097l0.363,0.098l0.359,0.095l0.731,0.193l0.732,0.19l0.734,0.188l0.737,0.186l0.741,0.186l0.743,0.184l0.746,0.183l0.749,0.183l0.75,0.182l0.753,0.182l1.514,0.364l1.52,0.365l1.525,0.368l0.767,0.186l0.767,0.187l0.768,0.189l0.769,0.191l0.77,0.193l0.771,0.195l0.772,0.198l0.773,0.201l0.768,0.203l0.391,0.104l0.37,0.1l0.312,0.082l0.303,0.078l0.309,0.078l0.316,0.077l0.32,0.077l0.327,0.077l0.681,0.158l0.696,0.16l0.361,0.084l0.367,0.087l0.371,0.089l0.377,0.091l0.384,0.096l0.389,0.101l0.387,0.102l0.207,0.056l0.2,0.056l0.203,0.057l0.202,0.059l0.203,0.059l0.208,0.062l0.208,0.064l0.207,0.065l0.21,0.068l0.213,0.069l0.209,0.071l0.212,0.072l0.214,0.076l0.215,0.077l0.219,0.081l0.216,0.082l0.215,0.084l0.22,0.087l0.22,0.09l0.222,0.093l0.221,0.096l0.218,0.096l0.222,0.101l0.226,0.106l0.221,0.105l0.223,0.11l0.226,0.114l0.223,0.116l0.224,0.119l0.196,0.108l0.132,0.072l0.109,0.058l0.115,0.062l0.124,0.064l0.131,0.067l0.135,0.068l0.138,0.069l0.145,0.071l0.153,0.075l0.151,0.073l0.328,0.156l0.34,0.159l0.356,0.165l0.369,0.169l0.38,0.173l0.793,0.361l0.41,0.187l0.417,0.192l0.422,0.195l0.429,0.2l0.43,0.204l0.221,0.106l0.219,0.106l0.22,0.107l0.219,0.108l0.222,0.111l0.221,0.111l0.221,0.112l0.223,0.116l0.223,0.116l0.224,0.119l0.222,0.12l0.221,0.121l0.225,0.125l0.224,0.127l0.222,0.128l0.223,0.131l0.223,0.134l0.225,0.138l0.222,0.139l0.224,0.144l0.222,0.146l0.222,0.15l0.225,0.156l0.221,0.158l0.222,0.163l0.225,0.17l0.21,0.165l0.122,0.098l0.114,0.093l0.107,0.089l0.11,0.094l0.117,0.101l0.113,0.1l0.128,0.115l0.132,0.123l0.128,0.121l0.128,0.124l0.125,0.124l0.122,0.123l0.121,0.126l0.117,0.125l0.112,0.121l0.114,0.126l0.113,0.128l0.108,0.125l0.107,0.126l0.102,0.123l0.103,0.126l0.102,0.127l0.099,0.127l0.096,0.124l0.092,0.122l0.092,0.124l0.091,0.125l0.091,0.125l0.088,0.125l0.091,0.131l0.157,0.232l0.16,0.242l0.153,0.24l0.148,0.236l0.142,0.235l0.137,0.23l0.132,0.228l0.128,0.224l0.122,0.22l0.12,0.218l0.115,0.213l0.111,0.208l0.109,0.206l0.107,0.205l0.198,0.383l0.373,0.725l0.176,0.339l0.082,0.156l0.081,0.152l0.08,0.15l0.079,0.144l0.076,0.137l0.074,0.131l0.073,0.126l0.072,0.123l0.069,0.115l0.067,0.108l0.066,0.105l0.063,0.097l0.071,0.105l0.022,0.033l0.027,0.039l0.032,0.045l0.03,0.042l0.026,0.034l0.028,0.039l0.028,0.037l0.023,0.029l0.026,0.033l0.028,0.035l0.026,0.031l0.023,0.028l0.023,0.028l0.024,0.027l0.021,0.023l0.022,0.024l0.022,0.024l0.02,0.022l0.022,0.022l0.02,0.021l0.017,0.017l0.019,0.018l0.018,0.017l0.02,0.019l0.018,0.016l0.015,0.013l0.015,0.013l0.019,0.015l0.014,0.012l0.014,0.012l0.019,0.014l0.014,0.011l0.013,0.009l0.026,0.019l0.24,0.167l0.253,0.175l0.257,0.176l0.261,0.176l0.264,0.177l0.268,0.176l0.271,0.177l0.273,0.175l0.274,0.173l0.276,0.173l0.279,0.17l0.283,0.171l0.135,0.08l0.142,0.083l0.136,0.08l0.141,0.081l0.14,0.081l0.137,0.077l0.139,0.078l0.139,0.077l0.137,0.075l0.139,0.075l0.139,0.074l0.135,0.072l0.135,0.07l0.136,0.07l0.135,0.068l0.134,0.068l0.132,0.065l0.132,0.064l0.133,0.063l0.128,0.06l0.127,0.059l0.126,0.057l0.127,0.057l0.125,0.055l0.122,0.052l0.122,0.051l0.119,0.049l0.115,0.046l0.115,0.045l0.116,0.045l0.11,0.041l0.107,0.038l0.109,0.039l0.105,0.035l0.097,0.032l0.099,0.032l0.098,0.03l0.09,0.027l0.023,0.006l0.003,0l0.058,0.004l0.076,0.003l0.09,0.003l0.092,0.003l0.256,0.005l0.296,0.005l0.338,0.007l0.199,0.006l0.201,0.007l0.216,0.011l0.238,0.014l0.245,0.019l0.256,0.024l0.259,0.029l0.16,0.021l0.148,0.021l0.148,0.023l0.157,0.027l0.158,0.029l0.158,0.031l0.174,0.038l0.169,0.039l0.169,0.043l0.185,0.05l0.186,0.054l0.178,0.056l0.186,0.062l0.256,0.092l0.376,0.152l0.447,0.219l0.449,0.261l0.448,0.309l0.448,0.365l0.425,0.413l0.2,0.23l0.187,0.224l0.177,0.233l0.182,0.252l0.302,0.502l0.252,0.513l0.203,0.516l0.155,0.511l0.106,0.471l0.071,0.444l0.04,0.429l0.014,0.394l-0.005,0.361l-0.021,0.33l-0.033,0.306l-0.041,0.279l-0.045,0.247l-0.051,0.236l-0.054,0.222l-0.055,0.2l-0.053,0.177l-0.054,0.17l-0.056,0.162l-0.061,0.167l-0.092,0.237l-0.097,0.232l-0.089,0.204l-0.081,0.175l-0.074,0.156l-0.064,0.135l-0.059,0.12l-0.032,0.143l-0.057,0.239l-0.059,0.234l-0.062,0.232l-0.065,0.228l-0.066,0.225l-0.068,0.22l-0.069,0.216l-0.072,0.215l-0.072,0.21l-0.075,0.207l-0.074,0.201l-0.075,0.199l-0.078,0.199l-0.078,0.192l-0.077,0.187l-0.078,0.187l-0.079,0.182l-0.077,0.177l-0.08,0.179l-0.079,0.172l-0.077,0.167l-0.077,0.166l-0.081,0.169l-0.149,0.309l-0.149,0.304l-0.147,0.294l-0.274,0.544l-0.132,0.262l-0.125,0.249l-0.118,0.236l-0.111,0.227l-0.109,0.226l-0.047,0.1l-0.048,0.103l-0.046,0.1l-0.044,0.098l-0.042,0.095l-0.04,0.091l-0.039,0.092l-0.038,0.09l-0.035,0.086l-0.034,0.086l-0.032,0.083l-0.03,0.079l-0.028,0.077l-0.027,0.077l-0.026,0.076l-0.024,0.073l-0.022,0.07l-0.034,0.112l-0.06,0.201l-0.077,0.241l-0.079,0.235l-0.081,0.231l-0.084,0.229l-0.085,0.224l-0.087,0.22l-0.088,0.218l-0.091,0.214l-0.091,0.209l-0.092,0.208l-0.093,0.202l-0.094,0.199l-0.095,0.198l-0.095,0.193l-0.095,0.188l-0.095,0.187l-0.097,0.185l-0.096,0.182l-0.096,0.178l-0.095,0.174l-0.095,0.172l-0.095,0.17l-0.098,0.173l-0.183,0.319l-0.185,0.316l-0.18,0.306l-0.177,0.297l-0.337,0.563l-0.161,0.269l-0.154,0.261l-0.147,0.251l-0.14,0.241l-0.136,0.24l-0.06,0.108l-0.06,0.109l-0.059,0.107l-0.057,0.108l-0.055,0.103l-0.051,0.1l-0.051,0.099l-0.049,0.098l-0.044,0.09l-0.043,0.091l-0.042,0.09l-0.039,0.084l-0.037,0.083l-0.034,0.081l-0.033,0.079l-0.03,0.073l-0.028,0.072l-0.035,0.094l-0.215,0.583l-0.23,0.619l-0.235,0.628l-0.241,0.636l-0.247,0.645l-0.252,0.649l-0.13,0.332l-0.131,0.33l-0.132,0.333l-0.133,0.332l-0.135,0.335l-0.136,0.336l-0.138,0.336l-0.139,0.338l-0.142,0.341l-0.143,0.34l-0.144,0.34l-0.146,0.34l-0.147,0.343l-0.15,0.343l-0.151,0.344l-0.153,0.343l-0.154,0.344l-0.157,0.344l-0.157,0.344l-0.16,0.344l-0.162,0.344l-0.163,0.345l-0.165,0.344l-0.168,0.344l-0.169,0.343l-0.17,0.342l-0.173,0.343l-0.175,0.343l-0.177,0.34l-0.179,0.342l-0.181,0.34l-0.183,0.338l-0.185,0.338l-0.188,0.337l-0.189,0.336l-0.192,0.334l-0.195,0.334l-0.197,0.333l-0.198,0.33l-0.202,0.33l-0.204,0.328l-0.207,0.326l-0.209,0.324l-0.211,0.323l-0.215,0.322l-0.213,0.312l-0.115,0.166l-0.11,0.157l-0.111,0.157l-0.114,0.161l-0.112,0.155l-0.112,0.155l-0.117,0.158l-0.113,0.154l-0.116,0.153l-0.118,0.156l-0.117,0.153l-0.115,0.148l-0.592,0.757l-0.589,0.751l-0.591,0.748l-0.591,0.746l-0.592,0.743l-0.591,0.74l-0.591,0.737l-0.159,0.197l-0.062,0.145l-0.103,0.234l-0.07,0.152l-0.073,0.156l-0.082,0.168l-0.093,0.181l-0.112,0.209l-0.127,0.221l-0.152,0.247l-0.162,0.242l-0.125,0.177l-0.126,0.167l-0.133,0.166l-0.149,0.177l-0.182,0.201l-0.191,0.195l-0.224,0.212l-0.254,0.217l-0.29,0.227l-0.344,0.237l-0.371,0.224l-0.215,0.111l-0.484,0.225l-0.501,0.185l-0.515,0.142l-0.524,0.1l-0.531,0.057l-0.534,0.013l-0.533,-0.031l-0.529,-0.075l-0.521,-0.118l-0.509,-0.16l-0.495,-0.202l-0.476,-0.241l-0.455,-0.28l-0.43,-0.316l-0.404,-0.35l-0.372,-0.382l-0.341,-0.412l-0.305,-0.438l-0.058,-0.09l-0.107,-0.176l-0.247,-0.409l-0.727,-1.206l-0.392,-0.651l-0.351,-0.58l-0.14,-0.229l-0.106,-0.172l-0.016,-0.026l-0.026,-0.037l-0.099,-0.138l-0.104,-0.142l-0.107,-0.143l-0.111,-0.146l-0.114,-0.149l-0.119,-0.152l-0.123,-0.156l-0.126,-0.158l-0.127,-0.157l-0.274,-0.338l-0.284,-0.347l-0.296,-0.361l-0.305,-0.373l-0.16,-0.196l-0.16,-0.199l-0.162,-0.203l-0.166,-0.208l-0.166,-0.213l-0.168,-0.216l-0.17,-0.223l-0.171,-0.227l-0.172,-0.234l-0.172,-0.237l-0.174,-0.244l-0.174,-0.25l-0.173,-0.255l-0.157,-0.238l-0.087,-0.131l-0.072,-0.109l-0.072,-0.108l-0.068,-0.1l-0.154,-0.224l-0.153,-0.217l-0.155,-0.217l-0.157,-0.216l-0.162,-0.219l-0.164,-0.217l-0.166,-0.218l-0.171,-0.22l-0.172,-0.218l-0.176,-0.22l-0.178,-0.219l-0.179,-0.219l-0.185,-0.222l-0.187,-0.222l-0.187,-0.22l-0.191,-0.222l-0.194,-0.223l-0.195,-0.223l-0.198,-0.224l-0.201,-0.225l-0.202,-0.224l-0.204,-0.225l-0.207,-0.227l-0.208,-0.228l-0.21,-0.227l-0.21,-0.226l-0.433,-0.462l-0.436,-0.463l-0.443,-0.467l-0.448,-0.471l-0.909,-0.954l-0.461,-0.485l-0.464,-0.49l-0.464,-0.494l-0.237,-0.253l-0.234,-0.252l-0.234,-0.252l-0.235,-0.256l-0.236,-0.258l-0.235,-0.259l-0.235,-0.26l-0.236,-0.264l-0.235,-0.265l-0.235,-0.267l-0.234,-0.269l-0.234,-0.272l-0.234,-0.274l-0.233,-0.275l-0.233,-0.279l-0.232,-0.282l-0.229,-0.282l-0.218,-0.271l-0.177,-0.222l-0.166,-0.204l-0.167,-0.205l-0.171,-0.206l-0.172,-0.207l-0.173,-0.206l-0.175,-0.206l-0.177,-0.208l-0.179,-0.208l-0.18,-0.208l-0.181,-0.207l-0.183,-0.208l-0.185,-0.21l-0.184,-0.207l-0.379,-0.423l-0.382,-0.423l-0.387,-0.425l-0.392,-0.427l-0.395,-0.429l-0.806,-0.872l-0.813,-0.879l-0.413,-0.446l-0.414,-0.451l-0.416,-0.454l-0.418,-0.46l-0.415,-0.46l-0.212,-0.237l-0.209,-0.234l-0.209,-0.236l-0.21,-0.239l-0.209,-0.238l-0.209,-0.241l-0.21,-0.243l-0.209,-0.244l-0.208,-0.245l-0.208,-0.246l-0.208,-0.249l-0.209,-0.251l-0.206,-0.252l-0.206,-0.253l-0.206,-0.255l-0.205,-0.258l-0.204,-0.259l-0.204,-0.261l-0.203,-0.264l-0.202,-0.266l-0.2,-0.266l-0.198,-0.267l-0.309,-0.421l-0.303,-0.419l-0.302,-0.419l-0.298,-0.419l-0.296,-0.421l-0.294,-0.42l-0.291,-0.419l-0.288,-0.42l-0.288,-0.421l-0.284,-0.42l-0.283,-0.419l-0.281,-0.42l-0.279,-0.419l-0.277,-0.419l-0.276,-0.418l-0.274,-0.418l-0.272,-0.418l-0.273,-0.418l-0.537,-0.829l-0.535,-0.829l-0.53,-0.824l-1.053,-1.637l-0.522,-0.811l-0.523,-0.807l-0.26,-0.399l-0.26,-0.399l-0.26,-0.397l-0.261,-0.396l-0.26,-0.394l-0.26,-0.391l-0.262,-0.391l-0.261,-0.389l-0.262,-0.386l-0.262,-0.385l-0.263,-0.383l-0.263,-0.38l-0.264,-0.379l-0.265,-0.376l-0.265,-0.374l-0.266,-0.372l-0.268,-0.369l-0.268,-0.367l-0.269,-0.365l-0.271,-0.362l-0.271,-0.36l-0.274,-0.357l-0.277,-0.359l-0.134,-0.171l-0.139,-0.177l-0.138,-0.176l-0.138,-0.173l-0.139,-0.174l-0.14,-0.173l-0.14,-0.173l-0.14,-0.17l-0.142,-0.172l-0.141,-0.171l-0.141,-0.168l-0.142,-0.169l-0.142,-0.169l-0.143,-0.167l-0.143,-0.167l-0.145,-0.167l-0.143,-0.164l-0.145,-0.164l-0.117,-0.133l-0.119,-0.133l-0.117,-0.13l-0.12,-0.131l-0.12,-0.131l-0.116,-0.126l-0.249,-0.267l-0.246,-0.261l-0.249,-0.26l-0.252,-0.259l-0.255,-0.259l-0.257,-0.26l-0.26,-0.257l-0.263,-0.259l-0.266,-0.259l-0.267,-0.257l-0.271,-0.258l-0.273,-0.258l-0.275,-0.258l-0.277,-0.258l-0.279,-0.257l-0.282,-0.258l-0.285,-0.259l-0.286,-0.259l-0.288,-0.259l-0.29,-0.26l-0.289,-0.258l-0.592,-0.524l-0.595,-0.525l-0.602,-0.528l-0.607,-0.532l-0.612,-0.536l-0.617,-0.542l-0.617,-0.545l-0.313,-0.277l-0.312,-0.278l-0.314,-0.28l-0.312,-0.28l-0.314,-0.283l-0.315,-0.286l-0.314,-0.287l-0.315,-0.289l-0.315,-0.292l-0.315,-0.293l-0.314,-0.296l-0.315,-0.299l-0.315,-0.301l-0.314,-0.304l-0.315,-0.308l-0.313,-0.309l-0.313,-0.312l-0.313,-0.317l-0.312,-0.319l-0.31,-0.321l-0.31,-0.325l-0.309,-0.329l-0.302,-0.326l-0.158,-0.173l-0.155,-0.17l-0.15,-0.167l-0.153,-0.171l-0.152,-0.171l-0.145,-0.164l-0.429,-0.487l-0.424,-0.482l-0.428,-0.482l-0.429,-0.485l-0.869,-0.978l-0.875,-0.984l-0.441,-0.498l-0.442,-0.5l-0.443,-0.502l-0.443,-0.506l-0.445,-0.509l-0.444,-0.511l-0.444,-0.515l-0.445,-0.52l-0.441,-0.519l-0.224,-0.265l-0.221,-0.263l-0.222,-0.265l-0.22,-0.266l-0.221,-0.266l-0.22,-0.267l-0.219,-0.268l-0.22,-0.271l-0.219,-0.271l-0.218,-0.271l-0.218,-0.273l-0.218,-0.274l-0.217,-0.276l-0.216,-0.276l-0.215,-0.277l-0.215,-0.279l-0.214,-0.28l-0.213,-0.281l-0.213,-0.283l-0.211,-0.283l-0.211,-0.285l-0.21,-0.287l-0.209,-0.288l-0.208,-0.289l-0.207,-0.291l-0.205,-0.291l-0.205,-0.294l-0.205,-0.296l-0.201,-0.295l-0.21,-0.31l-0.122,-0.184l-0.126,-0.198l-0.12,-0.193l-0.115,-0.191l-0.111,-0.191l-0.106,-0.187l-0.103,-0.184l-0.1,-0.185l-0.096,-0.182l-0.093,-0.179l-0.088,-0.174l-0.087,-0.175l-0.086,-0.174l-0.081,-0.17l-0.079,-0.165l-0.08,-0.17l-0.147,-0.317l-0.142,-0.314l-0.136,-0.304l-0.129,-0.289l-0.248,-0.557l-0.116,-0.256l-0.112,-0.245l-0.111,-0.237l-0.05,-0.104l-0.051,-0.106l-0.05,-0.102l-0.05,-0.1l-0.047,-0.093l-0.046,-0.089l-0.046,-0.086l-0.044,-0.081l-0.043,-0.079l-0.04,-0.071l-0.038,-0.065l-0.038,-0.063l-0.035,-0.057l-0.032,-0.052l-0.03,-0.047l-0.029,-0.043l-0.026,-0.036l-0.021,-0.031l-0.02,-0.026l-0.014,-0.019l-0.013,-0.016l-0.002,-0.002l-0.343,-0.304l-0.371,-0.389l-0.338,-0.417l-0.302,-0.445l-0.265,-0.467l-0.225,-0.488l-0.184,-0.505l-0.141,-0.518l-0.098,-0.528l-0.055,-0.535l-0.01,-0.537l0.034,-0.536l0.079,-0.531l0.122,-0.523l0.165,-0.512l0.207,-0.496l0.246,-0.477l0.286,-0.455l0.322,-0.43l0.356,-0.402l0.388,-0.371l0.418,-0.338l0.444,-0.302l0.468,-0.265l0.488,-0.225l0.504,-0.184l0.519,-0.141l0.528,-0.099l0.534,-0.054l0.537,-0.01l0.537,0.034l0.531,0.079l0.523,0.122l0.512,0.165l0.495,0.206l0.478,0.247l0.455,0.286l0.43,0.321l0.088,0.072l0.119,0.1l0.119,0.103l0.114,0.1l0.107,0.098l0.113,0.105l0.107,0.103l0.104,0.101l0.104,0.104l0.097,0.1l0.1,0.104l0.098,0.106l0.092,0.1l0.105,0.117l0.169,0.196l0.171,0.206l0.165,0.206l0.159,0.207l0.152,0.205l0.146,0.204l0.14,0.203l0.134,0.2l0.13,0.199l0.125,0.199l0.12,0.196l0.115,0.194l0.113,0.195l0.109,0.191l0.103,0.187l0.1,0.186l0.097,0.184l0.096,0.184l0.092,0.181l0.088,0.177l0.086,0.176l0.084,0.173l0.084,0.177l0.154,0.328l0.148,0.324l0.142,0.315l0.262,0.586l0.124,0.28l0.118,0.262l0.112,0.248l0.111,0.238l0.049,0.104l0.051,0.108l0.049,0.101l0.046,0.095l0.046,0.092l0.045,0.088l0.042,0.082l0.04,0.076l0.038,0.07l0.037,0.066l0.034,0.061l0.032,0.053l0.029,0.05l0.027,0.043l0.022,0.034l0.028,0.043l0.156,0.23l0.166,0.243l0.166,0.241l0.168,0.241l0.172,0.243l0.171,0.241l0.173,0.241l0.176,0.241l0.176,0.24l0.178,0.241l0.18,0.242l0.181,0.24l0.182,0.241l0.184,0.24l0.185,0.241l0.187,0.24l0.188,0.241l0.189,0.24l0.19,0.24l0.192,0.24l0.194,0.241l0.194,0.24l0.195,0.239l0.001,0.001l0.115,0l0.185,0.004l0.17,0.007Zm63.607,34.314l0.084,0.249l0.076,0.243l0.071,0.24l0.064,0.235l0.06,0.232l0.054,0.225l0.049,0.22l0.046,0.221l0.043,0.216l0.039,0.212l0.036,0.209l0.034,0.207l0.031,0.205l0.028,0.199l0.026,0.197l0.025,0.197l0.023,0.194l0.02,0.189l0.02,0.188l0.017,0.184l0.017,0.183l0.015,0.188l0.026,0.339l0.023,0.336l0.019,0.322l0.016,0.309l0.013,0.291l0.011,0.271l0.01,0.252l0.015,0.431l0.007,0.169l0.006,0.133l0.004,0.084l0.004,0.066l0.027,0.356l0.013,0.194l0.077,-0.01l0.258,-0.024l0.284,-0.017l0.294,-0.006l0.277,0.004l0.3,0.016l0.307,0.03l0.314,0.042l0.308,0.057l0.295,0.065l0.324,0.088l0.302,0.097l0.3,0.109l0.295,0.124l0.295,0.137l0.274,0.145l0.269,0.155l0.261,0.168l0.24,0.166l0.242,0.183l0.223,0.183l0.217,0.193l0.191,0.184l0.183,0.187l0.184,0.203l0.168,0.199l0.149,0.189l0.134,0.181l0.134,0.191l0.044,0.067l0.257,0.032l0.413,0.079l0.007,0.002l0.356,0.091l0.35,0.111l0.006,0.002l0.32,0.12l0.312,0.138l0.006,0.002l0.368,0.188l0.354,0.21l0.006,0.004l0.383,0.263l0.364,0.291l0.011,0.009l0.275,0.25l0.26,0.266l0.244,0.28l0.011,0.013l0.276,0.359l0.25,0.378l0.01,0.017l0.092,0.158l0.123,-0.09l0.211,-0.151l0.214,-0.149l0.171,-0.115l0.046,-0.032l0.1,-0.069l0.158,-0.108l0.128,-0.086l-0.086,-0.067l-0.145,-0.119l-0.139,-0.116l-0.14,-0.12l-0.138,-0.122l-0.134,-0.121l-0.13,-0.119l-0.13,-0.123l-0.127,-0.123l-0.126,-0.125l-0.122,-0.124l-0.118,-0.122l-0.119,-0.126l-0.115,-0.124l-0.113,-0.125l-0.114,-0.128l-0.108,-0.125l-0.107,-0.126l-0.105,-0.126l-0.102,-0.125l-0.098,-0.122l-0.099,-0.126l-0.1,-0.129l-0.094,-0.124l-0.092,-0.123l-0.093,-0.128l-0.088,-0.122l-0.085,-0.119l-0.088,-0.127l-0.092,-0.134l-0.154,-0.23l-0.158,-0.241l-0.15,-0.239l-0.146,-0.236l-0.141,-0.234l-0.134,-0.228l-0.13,-0.226l-0.127,-0.224l-0.122,-0.22l-0.117,-0.215l-0.113,-0.211l-0.112,-0.21l-0.108,-0.206l-0.202,-0.39l-0.379,-0.735l-0.179,-0.346l-0.082,-0.157l-0.083,-0.157l-0.081,-0.153l-0.079,-0.145l-0.077,-0.141l-0.076,-0.136l-0.074,-0.129l-0.071,-0.123l-0.07,-0.119l-0.068,-0.112l-0.067,-0.107l-0.064,-0.1l-0.062,-0.094l-0.069,-0.101l-0.024,-0.035l-0.028,-0.039l-0.027,-0.038l-0.027,-0.037l-0.027,-0.037l-0.029,-0.038l-0.027,-0.035l-0.025,-0.031l-0.023,-0.03l-0.024,-0.029l-0.026,-0.031l-0.023,-0.027l-0.023,-0.027l-0.02,-0.022l-0.02,-0.023l-0.024,-0.026l-0.021,-0.022l-0.019,-0.019l-0.02,-0.021l-0.018,-0.017l-0.016,-0.017l-0.019,-0.017l-0.016,-0.015l-0.023,-0.021l-0.013,-0.011l-0.01,-0.009l-0.02,-0.017l-0.024,-0.02l-0.021,-0.017l-0.014,-0.011l-0.066,-0.053l-0.062,-0.046l-0.07,-0.052l-0.079,-0.056l-0.083,-0.058l-0.092,-0.062l-0.098,-0.064l-0.104,-0.067l-0.111,-0.069l-0.113,-0.07l-0.121,-0.072l-0.126,-0.075l-0.133,-0.076l-0.135,-0.077l-0.139,-0.077l-0.146,-0.08l-0.151,-0.081l-0.152,-0.081l-0.156,-0.082l-0.16,-0.082l-0.164,-0.084l-0.168,-0.084l-0.169,-0.085l-0.174,-0.085l-0.175,-0.086l-0.178,-0.086l-0.177,-0.085l-0.371,-0.175l-0.375,-0.175l-0.382,-0.177l-0.387,-0.178l-0.391,-0.178l-0.793,-0.361l-0.4,-0.182l-0.248,-0.115l0.045,0.125Z"/><g><ellipse cx="1165.19" cy="1643.55" rx="546.231" ry="442.697" style="fill:#1ddf19;"/><path d="M1708.62,1588.72c3.053,20.507 4.628,41.42 4.628,62.653c0,264.707 -244.758,479.616 -546.231,479.616c-301.473,0 -546.231,-214.909 -546.231,-479.616c0,-1.798 0.011,-3.594 0.034,-5.388c35.004,235.148 264.313,416.963 541.604,416.963c299.425,0 542.903,-211.999 546.196,-474.228Z" style="fill:#1ebc1b;"/></g><g id="Layer1"><path d="M1509.04,1341.7l-55.059,-27.762l129.791,-223.167l27.53,13.881l-102.262,237.048Z" style="fill:#1ddf19;"/><path d="M904.017,1307.01l-54.729,28.408l-105.044,-235.827l27.365,-14.204l132.408,221.623Z" style="fill:#1ddf19;"/><ellipse cx="769.905" cy="1112.3" rx="33.595" ry="33.823" style="fill:#1ddf19;"/><ellipse cx="1587.59" cy="1122.35" rx="33.595" ry="33.823" style="fill:#1ddf19;"/><path d="M843.473,1333.25c0,0 176.719,-157.718 440.687,-65.987c0,0 54.241,49.903 -15.007,48.406c-69.247,-1.497 -30.251,-43.744 -190.476,-35.496c-160.225,8.247 -235.204,53.077 -235.204,53.077" style="fill:#fff;stroke:#fff;stroke-width:1px;"/><ellipse cx="1369.64" cy="1307.79" rx="33.494" ry="32.121" style="fill:#fff;"/></g><g id="Layer2"><g><ellipse cx="825.99" cy="1634.01" rx="138.473" ry="132.064" style="fill:#fff;"/><ellipse cx="1517.72" cy="1626.08" rx="138.473" ry="132.064" style="fill:#fff;"/><ellipse cx="1517.86" cy="1624.92" rx="47.359" ry="46.058" style="fill:#000500;"/><ellipse cx="819.772" cy="1633.01" rx="47.359" ry="46.058" style="fill:#000500;"/><path d="M1295.17,1656.03l1.313,0.141l1.299,0.234l1.28,0.327l1.253,0.417l1.22,0.505l1.18,0.591l1.136,0.673l1.085,0.753l1.028,0.829l0.966,0.899l0.9,0.967l0.829,1.028l0.753,1.084l0.674,1.136l0.591,1.18l0.506,1.22l0.417,1.253l0.327,1.279l0.235,1.299l0.141,1.313l0.048,1.32l-0.047,1.319l-0.141,1.313l-0.234,1.3l-0.326,1.279l-0.417,1.253l-0.505,1.22l-0.59,1.181l-0.674,1.136l-0.752,1.085l-0.828,1.028l-0.9,0.967l-0.966,0.9l-1.028,0.829l-1.084,0.753l-1.135,0.675l-1.181,0.591l-1.219,0.506l-1.253,0.418l-1.279,0.327l-1.299,0.235l-1.313,0.142l-1.32,0.048l-1.049,0l-1.04,0.002l-1.042,0.004l-1.043,0.004l-1.045,0.006l-1.046,0.007l-1.048,0.008l-1.049,0.01l-1.049,0.01l-1.054,0.012l-1.053,0.012l-1.053,0.013l-1.057,0.014l-1.057,0.015l-1.058,0.016l-1.057,0.017l-2.127,0.035l-2.129,0.038l-2.133,0.04l-2.138,0.042l-2.143,0.044l-2.147,0.044l-4.309,0.092l-4.323,0.091l-2.169,0.045l-2.172,0.044l-2.175,0.042l-2.18,0.041l-2.183,0.039l-2.183,0.036l-1.098,0.017l-1.095,0.016l-1.096,0.016l-1.098,0.014l-1.096,0.014l-1.098,0.013l-1.1,0.011l-1.101,0.011l-1.101,0.01l-1.101,0.008l-1.102,0.008l-1.105,0.006l-1.102,0.005l-1.104,0.003l-1.105,0.002l-1.088,0.001l-1.128,0.001l-1.287,0.004l-1.459,0.007l-1.622,0.009l-1.776,0.012l-1.925,0.015l-2.067,0.017l-2.202,0.02l-2.333,0.023l-2.454,0.025l-2.572,0.029l-2.682,0.03l-2.787,0.034l-2.887,0.036l-2.978,0.038l-3.065,0.042l-3.146,0.044l-3.221,0.046l-3.289,0.049l-3.352,0.052l-3.408,0.055l-3.458,0.057l-3.504,0.06l-3.542,0.062l-3.574,0.065l-3.601,0.067l-3.621,0.07l-3.636,0.073l-3.644,0.075l-3.647,0.078l-3.643,0.08l-3.635,0.083l-1.81,0.043l-1.806,0.043l-1.801,0.044l-1.796,0.044l-1.788,0.045l-1.779,0.045l-1.773,0.047l-1.762,0.046l-1.752,0.048l-1.743,0.048l-1.73,0.049l-1.718,0.049l-1.705,0.05l-1.691,0.051l-1.676,0.051l-1.661,0.052l-1.646,0.052l-1.628,0.053l-1.61,0.054l-1.592,0.054l-1.572,0.055l-1.554,0.056l-1.531,0.056l-1.51,0.056l-1.487,0.057l-1.464,0.058l-1.44,0.059l-1.416,0.059l-1.39,0.059l-1.363,0.06l-1.335,0.061l-1.307,0.061l-1.279,0.062l-1.247,0.062l-1.217,0.062l-1.184,0.063l-1.152,0.064l-1.119,0.064l-1.082,0.064l-1.047,0.065l-1.009,0.065l-0.98,0.065l-0.464,0.032l-0.459,0.033l-0.449,0.033l-0.439,0.032l-0.432,0.033l-0.421,0.033l-0.405,0.032l-0.395,0.032l-0.383,0.033l-0.371,0.032l-0.363,0.032l-0.346,0.032l-0.334,0.031l-0.324,0.032l-0.307,0.03l-0.293,0.031l-0.283,0.03l-0.268,0.03l-0.243,0.028l-0.231,0.027l-0.22,0.027l-0.068,0.009l-0.75,0.256l-1.277,0.337l-1.298,0.244l-1.312,0.152l-1.319,0.057l-1.32,-0.037l-1.314,-0.131l-1.302,-0.224l-1.282,-0.317l-1.256,-0.407l-1.224,-0.496l-1.185,-0.582l-1.141,-0.665l-1.091,-0.745l-1.034,-0.821l-0.974,-0.892l-0.907,-0.96l-0.837,-1.022l-0.761,-1.079l-0.683,-1.13l-0.6,-1.176l-0.515,-1.217l-0.427,-1.249l-0.336,-1.277l-0.245,-1.298l-0.151,-1.312l-0.057,-1.32l0.037,-1.32l0.131,-1.314l0.224,-1.301l0.317,-1.282l0.407,-1.256l0.496,-1.224l0.582,-1.186l0.665,-1.141l0.745,-1.09l0.015,-0.021l0.573,-0.737l0.608,-0.708l0.519,-0.572l0.999,-0.94l0.928,-0.766l0.874,-0.635l0.751,-0.488l0.666,-0.395l0.605,-0.329l0.577,-0.29l0.537,-0.248l0.452,-0.194l0.416,-0.169l0.416,-0.159l0.36,-0.128l0.335,-0.115l0.337,-0.108l0.317,-0.097l0.283,-0.083l0.264,-0.074l0.274,-0.073l0.246,-0.063l0.279,-0.069l0.427,-0.1l0.443,-0.096l0.415,-0.085l0.402,-0.077l0.4,-0.072l0.393,-0.067l0.388,-0.063l0.386,-0.059l0.379,-0.056l0.385,-0.054l0.388,-0.052l0.384,-0.049l0.389,-0.049l0.398,-0.047l0.408,-0.047l0.403,-0.045l0.409,-0.043l0.42,-0.044l0.426,-0.043l0.429,-0.041l0.439,-0.042l0.446,-0.04l0.45,-0.041l0.461,-0.039l0.468,-0.04l0.475,-0.039l0.483,-0.038l0.487,-0.038l0.494,-0.038l0.505,-0.037l0.513,-0.037l0.521,-0.037l0.534,-0.037l1.068,-0.072l1.108,-0.071l1.137,-0.07l1.167,-0.069l1.194,-0.069l1.225,-0.067l1.253,-0.067l1.28,-0.066l1.308,-0.065l1.333,-0.064l1.36,-0.064l1.385,-0.063l1.41,-0.062l1.433,-0.061l1.458,-0.061l1.481,-0.06l1.502,-0.059l1.524,-0.059l1.545,-0.058l1.565,-0.057l1.583,-0.057l1.603,-0.056l1.621,-0.055l1.639,-0.055l1.655,-0.054l1.669,-0.053l1.686,-0.053l1.702,-0.051l1.714,-0.052l1.726,-0.05l1.739,-0.05l1.751,-0.05l1.761,-0.048l1.772,-0.048l1.782,-0.048l1.789,-0.046l1.798,-0.046l1.805,-0.046l1.811,-0.044l1.817,-0.045l1.822,-0.043l1.828,-0.043l3.661,-0.083l3.67,-0.081l3.673,-0.079l3.669,-0.075l3.66,-0.074l3.644,-0.07l3.623,-0.068l3.597,-0.065l3.562,-0.063l3.523,-0.06l3.478,-0.057l3.428,-0.055l3.37,-0.052l3.308,-0.05l3.238,-0.047l3.165,-0.044l3.084,-0.041l2.996,-0.039l2.905,-0.037l2.806,-0.033l2.703,-0.031l2.592,-0.028l2.476,-0.026l2.355,-0.023l2.227,-0.02l2.094,-0.018l1.956,-0.015l1.811,-0.012l1.661,-0.01l1.509,-0.007l1.351,-0.004l1.172,-0.001l1.074,-0.001l1.058,-0.002l1.06,-0.003l1.061,-0.005l1.059,-0.006l1.062,-0.007l1.063,-0.008l1.063,-0.009l1.062,-0.011l1.065,-0.011l1.066,-0.012l1.068,-0.014l1.066,-0.014l1.068,-0.015l1.069,-0.016l1.065,-0.017l2.145,-0.035l2.143,-0.038l2.145,-0.04l2.148,-0.042l2.151,-0.043l2.152,-0.045l4.313,-0.091l4.317,-0.091l2.163,-0.045l2.164,-0.044l2.165,-0.043l2.167,-0.04l2.168,-0.039l2.165,-0.036l1.088,-0.017l1.086,-0.017l1.086,-0.015l1.085,-0.015l1.088,-0.014l1.085,-0.012l1.085,-0.012l1.088,-0.011l1.087,-0.009l1.087,-0.009l1.088,-0.007l1.086,-0.006l1.088,-0.005l0.708,-0.002l0.113,-0.004l2.443,0l1.319,0.047Zm-226.708,39.364l0.017,-0.012l0.241,-0.199l-0.258,0.211Zm2.678,-2.557l-0.893,0.974l-0.928,0.877l0.038,-0.031l0.956,-0.899l1.108,-1.224l0.539,-0.732l-0.82,1.035Z" style="fill:#010000;"/></g></g></svg>